<?xml version="1.0" encoding="utf-8"?>
<svg viewBox="0 0 500 500" style="shape-rendering: crispedges;" xmlns="http://www.w3.org/2000/svg">
  <g transform="matrix(1, 0, 0, 1.251453, 0.00001, -0.000003)" style="">
    <path d="M 231 228 L 206 250 L 235 253 Z" style="fill: rgb(255,126,116);"/>
    <path d="M 231 228 L 187 225 L 206 250 Z" style="fill: rgb(255,122,113);"/>
    <path d="M 231 228 L 211 192 L 187 225 Z" style="fill: rgb(255,122,116);"/>
    <path d="M 210 296 L 255 284 L 235 253 Z" style="fill: rgb(255,129,115);"/>
    <path d="M 235 253 L 278 249 L 231 228 Z" style="fill: rgb(255,131,122);"/>
    <path d="M 161 293 L 210 296 L 206 250 Z" style="fill: rgb(255,120,104);"/>
    <path d="M 206 250 L 210 296 L 235 253 Z" style="fill: rgb(255,125,112);"/>
    <path d="M 187 184 L 168 229 L 187 225 Z" style="fill: rgb(255,115,109);"/>
    <path d="M 187 225 L 168 229 L 206 250 Z" style="fill: rgb(255,117,108);"/>
    <path d="M 255 284 L 278 249 L 235 253 Z" style="fill: rgb(255,132,120);"/>
    <path d="M 231 228 L 264 164 L 211 192 Z" style="fill: rgb(255,125,123);"/>
    <path d="M 211 192 L 187 184 L 187 225 Z" style="fill: rgb(255,118,114);"/>
    <path d="M 278 249 L 282 210 L 231 228 Z" style="fill: rgb(255,131,123);"/>
    <path d="M 211 192 L 216 137 L 187 184 Z" style="fill: rgb(255,112,107);"/>
    <path d="M 168 229 L 155 260 L 206 250 Z" style="fill: rgb(255,115,104);"/>
    <path d="M 161 293 L 194 314 L 210 296 Z" style="fill: rgb(255,120,100);"/>
    <path d="M 210 296 L 246 330 L 255 284 Z" style="fill: rgb(255,130,112);"/>
    <path d="M 155 260 L 161 293 L 206 250 Z" style="fill: rgb(255,115,101);"/>
    <path d="M 282 210 L 264 164 L 231 228 Z" style="fill: rgb(255,130,127);"/>
    <path d="M 194 314 L 246 330 L 210 296 Z" style="fill: rgb(255,126,105);"/>
    <path d="M 255 284 L 315 278 L 278 249 Z" style="fill: rgb(255,133,117);"/>
    <path d="M 310 317 L 315 278 L 255 284 Z" style="fill: rgb(255,134,113);"/>
    <path d="M 278 249 L 318 203 L 282 210 Z" style="fill: rgb(255,132,122);"/>
    <path d="M 282 210 L 318 203 L 264 164 Z" style="fill: rgb(255,129,122);"/>
    <path d="M 168 229 L 122 262 L 155 260 Z" style="fill: rgb(255,109,96);"/>
    <path d="M 155 260 L 122 262 L 161 293 Z" style="fill: rgb(255,109,93);"/>
    <path d="M 105 201 L 122 262 L 168 229 Z" style="fill: rgb(255,104,95);"/>
    <path d="M 345 252 L 318 203 L 278 249 Z" style="fill: rgb(255,133,118);"/>
    <path d="M 264 164 L 216 137 L 211 192 Z" style="fill: rgb(255,116,112);"/>
    <path d="M 187 184 L 130 174 L 168 229 Z" style="fill: rgb(255,109,104);"/>
    <path d="M 161 293 L 173 337 L 194 314 Z" style="fill: rgb(255,117,95);"/>
    <path d="M 194 314 L 213 371 L 246 330 Z" style="fill: rgb(255,127,101);"/>
    <path d="M 128 310 L 173 337 L 161 293 Z" style="fill: rgb(255,112,90);"/>
    <path d="M 143 147 L 130 174 L 187 184 Z" style="fill: rgb(255,98,94);"/>
    <path d="M 216 137 L 188 133 L 187 184 Z" style="fill: rgb(255,104,99);"/>
    <path d="M 326 160 L 280 144 L 264 164 Z" style="fill: rgb(255,119,110);"/>
    <path d="M 264 164 L 280 144 L 216 137 Z" style="fill: rgb(255,116,111);"/>
    <path d="M 216 137 L 191 104 L 188 133 Z" style="fill: rgb(255,96,91);"/>
    <path d="M 122 262 L 128 310 L 161 293 Z" style="fill: rgb(255,107,89);"/>
    <path d="M 246 330 L 310 317 L 255 284 Z" style="fill: rgb(255,134,112);"/>
    <path d="M 122 328 L 168 349 L 173 337 Z" style="fill: rgb(255,113,85);"/>
    <path d="M 173 337 L 213 371 L 194 314 Z" style="fill: rgb(255,122,95);"/>
    <path d="M 246 330 L 297 348 L 310 317 Z" style="fill: rgb(255,135,107);"/>
    <path d="M 188 133 L 143 147 L 187 184 Z" style="fill: rgb(255,99,94);"/>
    <path d="M 99 170 L 105 201 L 130 174 Z" style="fill: rgb(251,93,88);"/>
    <path d="M 130 174 L 105 201 L 168 229 Z" style="fill: rgb(255,104,99);"/>
    <path d="M 71 286 L 122 328 L 128 310 Z" style="fill: rgb(249,102,79);"/>
    <path d="M 355 306 L 345 252 L 315 278 Z" style="fill: rgb(255,134,110);"/>
    <path d="M 315 278 L 345 252 L 278 249 Z" style="fill: rgb(255,133,115);"/>
    <path d="M 253 369 L 272 357 L 246 330 Z" style="fill: rgb(255,135,107);"/>
    <path d="M 168 349 L 213 371 L 173 337 Z" style="fill: rgb(255,120,91);"/>
    <path d="M 272 357 L 297 348 L 246 330 Z" style="fill: rgb(255,135,106);"/>
    <path d="M 310 317 L 355 306 L 315 278 Z" style="fill: rgb(255,135,109);"/>
    <path d="M 213 371 L 253 369 L 246 330 Z" style="fill: rgb(255,132,103);"/>
    <path d="M 272 357 L 292 390 L 297 348 Z" style="fill: rgb(255,136,101);"/>
    <path d="M 71 286 L 128 310 L 122 262 Z" style="fill: rgb(249,101,82);"/>
    <path d="M 128 310 L 122 328 L 173 337 Z" style="fill: rgb(255,110,84);"/>
    <path d="M 168 349 L 198 380 L 213 371 Z" style="fill: rgb(255,123,90);"/>
    <path d="M 318 203 L 326 160 L 264 164 Z" style="fill: rgb(255,125,115);"/>
    <path d="M 356 201 L 326 160 L 318 203 Z" style="fill: rgb(255,129,116);"/>
    <path d="M 252 96 L 229 106 L 280 144 Z" style="fill: rgb(255,106,101);"/>
    <path d="M 280 144 L 229 106 L 216 137 Z" style="fill: rgb(255,108,104);"/>
    <path d="M 188 133 L 156 112 L 143 147 Z" style="fill: rgb(255,89,84);"/>
    <path d="M 87 194 L 84 220 L 105 201 Z" style="fill: rgb(244,96,89);"/>
    <path d="M 105 201 L 84 220 L 122 262 Z" style="fill: rgb(248,98,89);"/>
    <path d="M 156 381 L 198 380 L 168 349 Z" style="fill: rgb(255,119,85);"/>
    <path d="M 213 371 L 206.4516129032258 400 L 208.84848484848484 400 L 253 369 Z" style="fill: rgb(255,130,96);"/>
    <path d="M 84 220 L 81 248 L 122 262 Z" style="fill: rgb(245,98,85);"/>
    <path d="M 345 252 L 356 201 L 318 203 Z" style="fill: rgb(255,133,117);"/>
    <path d="M 229 106 L 191 104 L 216 137 Z" style="fill: rgb(255,97,92);"/>
    <path d="M 111 146 L 130 174 L 143 147 Z" style="fill: rgb(255,88,84);"/>
    <path d="M 111 146 L 99 170 L 130 174 Z" style="fill: rgb(251,87,83);"/>
    <path d="M 99 170 L 87 194 L 105 201 Z" style="fill: rgb(246,93,87);"/>
    <path d="M 363 171 L 337 154 L 326 160 Z" style="fill: rgb(255,122,107);"/>
    <path d="M 326 160 L 309 126 L 280 144 Z" style="fill: rgb(255,116,105);"/>
    <path d="M 337 154 L 309 126 L 326 160 Z" style="fill: rgb(255,117,104);"/>
    <path d="M 191 104 L 156 112 L 188 133 Z" style="fill: rgb(255,88,84);"/>
    <path d="M 126 119 L 111 146 L 143 147 Z" style="fill: rgb(255,81,78);"/>
    <path d="M 341 330 L 355 306 L 310 317 Z" style="fill: rgb(255,136,105);"/>
    <path d="M 345 252 L 390 219 L 356 201 Z" style="fill: rgb(255,133,114);"/>
    <path d="M 346 385 L 341 330 L 297 348 Z" style="fill: rgb(255,137,99);"/>
    <path d="M 297 348 L 341 330 L 310 317 Z" style="fill: rgb(255,136,104);"/>
    <path d="M 309 100 L 252 96 L 280 144 Z" style="fill: rgb(255,106,98);"/>
    <path d="M 229 106 L 197 58 L 191 104 Z" style="fill: rgb(251,88,83);"/>
    <path d="M 122 328 L 156 381 L 168 349 Z" style="fill: rgb(255,112,81);"/>
    <path d="M 156 112 L 126 119 L 143 147 Z" style="fill: rgb(255,81,78);"/>
    <path d="M 42 314 L 71 286 L 28 265 Z" style="fill: rgb(228,91,70);"/>
    <path d="M 81 248 L 71 286 L 122 262 Z" style="fill: rgb(244,98,82);"/>
    <path d="M 122 328 L 95 375 L 156 381 Z" style="fill: rgb(255,107,74);"/>
    <path d="M 71 286 L 81 248 L 28 265 Z" style="fill: rgb(233,92,75);"/>
    <path d="M 399 182 L 363 171 L 356 201 Z" style="fill: rgb(255,129,111);"/>
    <path d="M 356 201 L 363 171 L 326 160 Z" style="fill: rgb(255,126,111);"/>
    <path d="M 366 119 L 309 100 L 309 126 Z" style="fill: rgb(255,108,94);"/>
    <path d="M 355 306 L 380 259 L 345 252 Z" style="fill: rgb(255,135,109);"/>
    <path d="M 156 381 L 201.23809523809524 400 L 205.27272727272728 400 L 198 380 Z" style="fill: rgb(255,122,85);"/>
    <path d="M 198 380 L 205.27272727272728 400 L 206.4516129032258 400 L 213 371 Z" style="fill: rgb(255,126,90);"/>
    <path d="M 253 369 L 292 390 L 272 357 Z" style="fill: rgb(255,136,102);"/>
    <path d="M 276.6190476190476 400 L 288.6666666666667 400 L 292 390 L 253 369 Z" style="fill: rgb(255,136,98);"/>
    <path d="M 366 119 L 309 126 L 337 154 Z" style="fill: rgb(255,114,99);"/>
    <path d="M 309 126 L 309 100 L 280 144 Z" style="fill: rgb(255,110,99);"/>
    <path d="M 380 259 L 390 219 L 345 252 Z" style="fill: rgb(255,134,111);"/>
    <path d="M 126 119 L 88 134 L 111 146 Z" style="fill: rgb(249,76,73);"/>
    <path d="M 111 146 L 88 134 L 99 170 Z" style="fill: rgb(246,80,76);"/>
    <path d="M 99 170 L 37 174 L 87 194 Z" style="fill: rgb(237,86,80);"/>
    <path d="M 29 224 L 81 248 L 84 220 Z" style="fill: rgb(234,92,80);"/>
    <path d="M 309 74 L 253 69 L 252 96 Z" style="fill: rgb(247,97,89);"/>
    <path d="M 252 96 L 242 60 L 229 106 Z" style="fill: rgb(250,96,91);"/>
    <path d="M 191 104 L 197 58 L 156 112 Z" style="fill: rgb(251,81,77);"/>
    <path d="M 156 112 L 130 48 L 126 119 Z" style="fill: rgb(252,68,67);"/>
    <path d="M 249.73684210526315 400 L 276.6190476190476 400 L 253 369 Z" style="fill: rgb(255,136,98);"/>
    <path d="M 346 385 L 370 349 L 341 330 Z" style="fill: rgb(255,137,97);"/>
    <path d="M 399 182 L 374 144 L 363 171 Z" style="fill: rgb(255,124,105);"/>
    <path d="M 363 171 L 374 144 L 337 154 Z" style="fill: rgb(255,121,104);"/>
    <path d="M 346 385 L 297 348 L 292 390 Z" style="fill: rgb(255,137,97);"/>
    <path d="M 341 330 L 370 349 L 355 306 Z" style="fill: rgb(255,136,101);"/>
    <path d="M 355 306 L 404 284 L 380 259 Z" style="fill: rgb(255,136,105);"/>
    <path d="M 380 259 L 437 247 L 390 219 Z" style="fill: rgb(255,135,107);"/>
    <path d="M 53 356 L 95 375 L 122 328 Z" style="fill: rgb(243,101,68);"/>
    <path d="M 254 6 L 242 60 L 253 69 Z" style="fill: rgb(231,89,82);"/>
    <path d="M 253 69 L 242 60 L 252 96 Z" style="fill: rgb(245,95,90);"/>
    <path d="M 126 119 L 73 115 L 88 134 Z" style="fill: rgb(244,70,67);"/>
    <path d="M 208.84848484848484 400 L 249.73684210526315 400 L 253 369 Z" style="fill: rgb(255,133,95);"/>
    <path d="M 242 60 L 197 58 L 229 106 Z" style="fill: rgb(244,89,83);"/>
    <path d="M 410 302 L 404 284 L 355 306 Z" style="fill: rgb(255,136,102);"/>
    <path d="M 390 219 L 399 182 L 356 201 Z" style="fill: rgb(255,133,115);"/>
    <path d="M 422 184 L 399 182 L 390 219 Z" style="fill: rgb(255,132,111);"/>
    <path d="M 302.3448275862069 400 L 335.4117647058824 400 L 346 385 L 292 390 Z" style="fill: rgb(255,138,92);"/>
    <path d="M 335 59 L 309 74 L 309 100 Z" style="fill: rgb(246,98,84);"/>
    <path d="M 309 100 L 309 74 L 252 96 Z" style="fill: rgb(252,100,90);"/>
    <path d="M 374 144 L 366 119 L 337 154 Z" style="fill: rgb(255,116,98);"/>
    <path d="M 380 106 L 366 119 L 374 144 Z" style="fill: rgb(255,112,92);"/>
    <path d="M 71 286 L 42 314 L 122 328 Z" style="fill: rgb(239,97,73);"/>
    <path d="M 29 224 L 84 220 L 87 194 Z" style="fill: rgb(235,91,83);"/>
    <path d="M 37 174 L 29 224 L 87 194 Z" style="fill: rgb(230,87,80);"/>
    <path d="M 29 224 L 28 265 L 81 248 Z" style="fill: rgb(228,89,75);"/>
    <path d="M 91 53 L 73 115 L 126 119 Z" style="fill: rgb(243,60,59);"/>
    <path d="M 88 134 L 37 174 L 99 170 Z" style="fill: rgb(237,79,74);"/>
    <path d="M 53 356 L 85 384 L 95 375 Z" style="fill: rgb(239,99,62);"/>
    <path d="M 132.8918918918919 400 L 147.4047619047619 400 L 156 381 Z" style="fill: rgb(255,111,69);"/>
    <path d="M 73 115 L 37 174 L 88 134 Z" style="fill: rgb(234,71,66);"/>
    <path d="M 370 349 L 410 302 L 355 306 Z" style="fill: rgb(255,137,100);"/>
    <path d="M 445 226 L 422 184 L 390 219 Z" style="fill: rgb(255,134,109);"/>
    <path d="M 432 336 L 410 302 L 370 349 Z" style="fill: rgb(255,138,95);"/>
    <path d="M 288.6666666666667 400 L 302.3448275862069 400 L 292 390 Z" style="fill: rgb(255,137,94);"/>
    <path d="M 147.4047619047619 400 L 201.23809523809524 400 L 156 381 Z" style="fill: rgb(255,118,78);"/>
    <path d="M 104.30232558139535 400 L 132.8918918918919 400 L 156 381 L 95 375 Z" style="fill: rgb(254,108,67);"/>
    <path d="M 42 314 L 53 356 L 122 328 Z" style="fill: rgb(237,97,68);"/>
    <path d="M 23 342 L 53 356 L 42 314 Z" style="fill: rgb(225,91,60);"/>
    <path d="M 346 385 L 371 400 L 370 349 Z" style="fill: rgb(255,138,92);"/>
    <path d="M 85 384 L 97.23529411764706 400 L 104.30232558139535 400 L 95 375 Z" style="fill: rgb(246,103,62);"/>
    <path d="M 81.17391304347827 400 L 97.23529411764706 400 L 85 384 Z" style="fill: rgb(243,102,59);"/>
    <path d="M 437 247 L 380 259 L 404 284 Z" style="fill: rgb(255,136,104);"/>
    <path d="M 399 182 L 445 122 L 374 144 Z" style="fill: rgb(255,120,96);"/>
    <path d="M 445 122 L 380 106 L 374 144 Z" style="fill: rgb(255,113,89);"/>
    <path d="M 366 119 L 335 59 L 309 100 Z" style="fill: rgb(253,102,86);"/>
    <path d="M 222 19 L 188 32 L 197 58 Z" style="fill: rgb(227,75,68);"/>
    <path d="M 197 58 L 130 48 L 156 112 Z" style="fill: rgb(243,71,68);"/>
    <path d="M 222 19 L 197 58 L 242 60 Z" style="fill: rgb(231,82,75);"/>
    <path d="M 136 39 L 130 48 L 197 58 Z" style="fill: rgb(232,64,60);"/>
    <path d="M 458 275 L 437 247 L 404 284 Z" style="fill: rgb(255,136,100);"/>
    <path d="M 380 106 L 335 59 L 366 119 Z" style="fill: rgb(253,103,85);"/>
    <path d="M 254 6 L 222 19 L 242 60 Z" style="fill: rgb(224,83,75);"/>
    <path d="M 355.375 400 L 346 385 L 335.4117647058824 400 Z" style="fill: rgb(255,138,89);"/>
    <path d="M 355.375 400 L 371 400 L 371 400 L 346 385 Z" style="fill: rgb(255,139,88);"/>
    <path d="M 410 302 L 458 275 L 404 284 Z" style="fill: rgb(255,137,99);"/>
    <path d="M 188 32 L 136 39 L 197 58 Z" style="fill: rgb(229,68,63);"/>
    <path d="M 130 48 L 91 53 L 126 119 Z" style="fill: rgb(239,58,57);"/>
    <path d="M 0 310.4406779661017 L 0 323.025 L 23 342 L 42 314 Z" style="fill: rgb(217,86,58);"/>
    <path d="M 53 356 L 47 394 L 85 384 Z" style="fill: rgb(233,97,57);"/>
    <path d="M 0 292.3777777777778 L 0 310.4406779661017 L 42 314 L 28 265 Z" style="fill: rgb(217,86,63);"/>
    <path d="M 301 18 L 253 69 L 309 74 Z" style="fill: rgb(235,92,81);"/>
    <path d="M 135.11363636363637 0 L 132.3913043478261 0 L 123 18 L 136 39 Z" style="fill: rgb(218,49,47);"/>
    <path d="M 437 247 L 445 226 L 390 219 Z" style="fill: rgb(255,135,106);"/>
    <path d="M 422 184 L 445 122 L 399 182 Z" style="fill: rgb(255,124,98);"/>
    <path d="M 393 398 L 432 336 L 370 349 Z" style="fill: rgb(255,138,90);"/>
    <path d="M 89 51 L 91 53 L 123 18 Z" style="fill: rgb(219,47,46);"/>
    <path d="M 73 115 L 21 124 L 37 174 Z" style="fill: rgb(226,66,61);"/>
    <path d="M 393 398 L 370 349 L 371 400 Z" style="fill: rgb(255,139,89);"/>
    <path d="M 437 247 L 458 275 L 445 226 Z" style="fill: rgb(255,136,100);"/>
    <path d="M 23 342 L 47 394 L 53 356 Z" style="fill: rgb(225,92,56);"/>
    <path d="M 371 400 L 390.1578947368421 400 L 393 398 L 371 400 Z" style="fill: rgb(255,139,86);"/>
    <path d="M 123 18 L 91 53 L 130 48 Z" style="fill: rgb(224,50,49);"/>
    <path d="M 91 53 L 89 51 L 73 115 Z" style="fill: rgb(228,52,51);"/>
    <path d="M 32 107 L 21 124 L 73 115 Z" style="fill: rgb(225,57,54);"/>
    <path d="M 0 217.26785714285714 L 0 246.78571428571428 L 29 224 Z" style="fill: rgb(211,80,67);"/>
    <path d="M 29 224 L 0 246.78571428571428 L 0 259.5365853658537 L 28 265 Z" style="fill: rgb(216,83,68);"/>
    <path d="M 36 50 L 32 107 L 73 115 Z" style="fill: rgb(222,49,48);"/>
    <path d="M 0 186.56603773584905 L 0 203.37777777777777 L 29 224 L 37 174 Z" style="fill: rgb(217,81,73);"/>
    <path d="M 0 371.78181818181815 L 0 372.8888888888889 L 44.36363636363636 400 L 46.142857142857146 400 L 47 394 Z" style="fill: rgb(221,91,49);"/>
    <path d="M 47 394 L 46.142857142857146 400 L 48.294117647058826 400 L 85 384 Z" style="fill: rgb(232,97,54);"/>
    <path d="M 0 361.2903225806452 L 0 371.7818181818182 L 47 394 L 23 342 Z" style="fill: rgb(218,89,51);"/>
    <path d="M 356 22 L 301 18 L 335 59 Z" style="fill: rgb(226,89,71);"/>
    <path d="M 335 59 L 301 18 L 309 74 Z" style="fill: rgb(234,92,77);"/>
    <path d="M 301 18 L 254 6 L 253 69 Z" style="fill: rgb(225,86,77);"/>
    <path d="M 142.16216216216216 0 L 135.11363636363637 0 L 136 39 L 188 32 Z" style="fill: rgb(220,57,53);"/>
    <path d="M 136 39 L 123 18 L 130 48 Z" style="fill: rgb(225,52,51);"/>
    <path d="M 48.294117647058826 400 L 81.17391304347827 400 L 85 384 Z" style="fill: rgb(235,99,55);"/>
    <path d="M 432 336 L 458 275 L 410 302 Z" style="fill: rgb(255,138,95);"/>
    <path d="M 390.1578947368421 400 L 395.3333333333333 400 L 393 398 Z" style="fill: rgb(255,140,83);"/>
    <path d="M 0 124.975 L 0 186.56603773584905 L 37 174 Z" style="fill: rgb(213,68,61);"/>
    <path d="M 142.16216216216216 0 L 188 32 L 180.82758620689654 0 Z" style="fill: rgb(210,56,51);"/>
    <path d="M 0 259.5365853658537 L 0 292.3777777777778 L 28 265 Z" style="fill: rgb(211,82,61);"/>
    <path d="M 474 209 L 422 184 L 445 226 Z" style="fill: rgb(255,135,106);"/>
    <path d="M 474 209 L 458 168 L 422 184 Z" style="fill: rgb(255,131,102);"/>
    <path d="M 380 106 L 400 63 L 335 59 Z" style="fill: rgb(245,99,79);"/>
    <path d="M 0 203.37777777777777 L 0 217.26785714285714 L 29 224 Z" style="fill: rgb(212,79,69);"/>
    <path d="M 444 99 L 400 63 L 380 106 Z" style="fill: rgb(251,104,77);"/>
    <path d="M 451 133 L 445 122 L 422 184 Z" style="fill: rgb(255,120,90);"/>
    <path d="M 434 390 L 455 342 L 432 336 Z" style="fill: rgb(255,139,85);"/>
    <path d="M 432 336 L 479 289 L 458 275 Z" style="fill: rgb(255,138,93);"/>
    <path d="M 434 390 L 432 336 L 393 398 Z" style="fill: rgb(255,139,84);"/>
    <path d="M 458 168 L 451 133 L 422 184 Z" style="fill: rgb(255,124,95);"/>
    <path d="M 500 252.6 L 500 249.70689655172413 L 445 226 L 458 275 Z" style="fill: rgb(255,137,97);"/>
    <path d="M 500 249.70689655172413 L 500 246.6551724137931 L 474 209 L 445 226 Z" style="fill: rgb(255,136,99);"/>
    <path d="M 458 168 L 467 116 L 451 133 Z" style="fill: rgb(255,119,85);"/>
    <path d="M 9 87 L 0 112.5 L 0 121.375 L 21 124 Z" style="fill: rgb(213,49,46);"/>
    <path d="M 21 124 L 0 121.375 L 0 124.975 L 37 174 Z" style="fill: rgb(217,62,56);"/>
    <path d="M 9 87 L 21 124 L 32 107 Z" style="fill: rgb(217,49,47);"/>
    <path d="M 9 87 L 32 107 L 36 50 Z" style="fill: rgb(211,43,41);"/>
    <path d="M 400 63 L 356 22 L 335 59 Z" style="fill: rgb(232,93,72);"/>
    <path d="M 301 18 L 293 0 L 258.90909090909093 0 L 254 6 Z" style="fill: rgb(211,80,68);"/>
    <path d="M 395.3333333333333 400 L 434.22727272727275 400 L 434 390 L 393 398 Z" style="fill: rgb(255,140,79);"/>
    <path d="M 0 323.025 L 0 346.8421052631579 L 23 342 Z" style="fill: rgb(211,84,53);"/>
    <path d="M 0 346.8421052631579 L 0 361.2903225806452 L 23 342 Z" style="fill: rgb(211,85,49);"/>
    <path d="M 500 255.75 L 479 289 L 500 306.8181818181818 Z" style="fill: rgb(255,139,88);"/>
    <path d="M 455 342 L 479 289 L 432 336 Z" style="fill: rgb(255,139,89);"/>
    <path d="M 202.15555555555557 0 L 180.82758620689654 0 L 188 32 L 222 19 Z" style="fill: rgb(214,67,60);"/>
    <path d="M 60 17 L 36 50 L 89 51 Z" style="fill: rgb(205,40,38);"/>
    <path d="M 36 50 L 73 115 L 89 51 Z" style="fill: rgb(221,48,47);"/>
    <path d="M 467 116 L 445 122 L 451 133 Z" style="fill: rgb(255,114,81);"/>
    <path d="M 467 116 L 444 99 L 445 122 Z" style="fill: rgb(255,111,78);"/>
    <path d="M 445 122 L 444 99 L 380 106 Z" style="fill: rgb(255,109,81);"/>
    <path d="M 400 63 L 379 4 L 356 22 Z" style="fill: rgb(224,89,66);"/>
    <path d="M 83.07142857142857 0 L 60 17 L 89 51 L 96.40322580645162 0 Z" style="fill: rgb(203,39,37);"/>
    <path d="M 444 99 L 416 53 L 400 63 Z" style="fill: rgb(243,100,71);"/>
    <path d="M 253.2 0 L 230.51724137931035 0 L 222 19 L 254 6 Z" style="fill: rgb(211,77,68);"/>
    <path d="M 221.17391304347825 0 L 202.15555555555557 0 L 222 19 Z" style="fill: rgb(211,68,60);"/>
    <path d="M 344.2142857142857 0 L 309.65384615384613 0 L 301 18 L 356 22 Z" style="fill: rgb(212,82,64);"/>
    <path d="M 309.65384615384613 0 L 293 0 L 301 18 Z" style="fill: rgb(211,81,66);"/>
    <path d="M 500 117.2093023255814 L 500 116 L 467 116 L 458 168 Z" style="fill: rgb(255,117,81);"/>
    <path d="M 444 99 L 464 65 L 416 53 Z" style="fill: rgb(243,101,68);"/>
    <path d="M 107.48275862068965 0 L 123 18 L 132.3913043478261 0 Z" style="fill: rgb(208,41,40);"/>
    <path d="M 107.48275862068965 0 L 96.40322580645162 0 L 89 51 L 123 18 Z" style="fill: rgb(211,43,41);"/>
    <path d="M 0 86.35714285714286 L 0 112.5 L 9 87 Z" style="fill: rgb(209,42,40);"/>
    <path d="M 479 289 L 500 255.75 L 500 252.6 L 458 275 Z" style="fill: rgb(255,138,93);"/>
    <path d="M 500 165.56521739130434 L 500 117.20930232558139 L 458 168 Z" style="fill: rgb(255,122,83);"/>
    <path d="M 500 322.2631578947368 L 500 306.8181818181818 L 479 289 L 455 342 Z" style="fill: rgb(255,139,86);"/>
    <path d="M 258.90909090909093 0 L 253.2 0 L 254 6 Z" style="fill: rgb(212,79,69);"/>
    <path d="M 402.2 0 L 380.6 0 L 379 4 L 415 4 Z" style="fill: rgb(211,83,56);"/>
    <path d="M 416 53 L 379 4 L 400 63 Z" style="fill: rgb(229,92,66);"/>
    <path d="M 44.36363636363636 400 L 0 372.8888888888889 L 0 400 Z" style="fill: rgb(216,89,43);"/>
    <path d="M 475 392 L 492 358 L 455 342 Z" style="fill: rgb(255,140,78);"/>
    <path d="M 0 59.65853658536585 L 0 70.28571428571429 L 9 87 L 36 50 Z" style="fill: rgb(199,37,35);"/>
    <path d="M 29 20 L 0 54.970588235294116 L 0 59.65853658536585 L 36 50 Z" style="fill: rgb(192,32,31);"/>
    <path d="M 29 20 L 36 50 L 60 17 Z" style="fill: rgb(193,33,32);"/>
    <path d="M 230.51724137931035 0 L 221.17391304347825 0 L 222 19 Z" style="fill: rgb(211,74,66);"/>
    <path d="M 55.75 0 L 37.51063829787234 0 L 29 20 L 60 17 Z" style="fill: rgb(183,27,26);"/>
    <path d="M 475 392 L 455 342 L 434 390 Z" style="fill: rgb(255,140,79);"/>
    <path d="M 434.22727272727275 400 L 467.3809523809524 400 L 475 392 L 434 390 Z" style="fill: rgb(255,141,75);"/>
    <path d="M 379 4 L 373.42105263157896 0 L 344.2142857142857 0 L 356 22 Z" style="fill: rgb(211,82,61);"/>
    <path d="M 415 4 L 379 4 L 416 53 Z" style="fill: rgb(220,88,60);"/>
    <path d="M 373.42105263157896 0 L 379 4 L 374.6279069767442 0 Z" style="fill: rgb(211,82,61);"/>
    <path d="M 0 70.28571428571428 L 0 86.35714285714286 L 9 87 Z" style="fill: rgb(200,37,35);"/>
    <path d="M 492 358 L 500 341.6 L 500 322.2631578947368 L 455 342 Z" style="fill: rgb(255,140,81);"/>
    <path d="M 467 116 L 464 65 L 444 99 Z" style="fill: rgb(253,106,71);"/>
    <path d="M 500 116 L 500 114.62162162162163 L 464 65 L 467 116 Z" style="fill: rgb(255,108,70);"/>
    <path d="M 83.07142857142857 0 L 66.71052631578948 0 L 60 17 Z" style="fill: rgb(193,33,31);"/>
    <path d="M 380.6 0 L 374.62790697674416 0 L 379 4 Z" style="fill: rgb(211,82,60);"/>
    <path d="M 500 246.6551724137931 L 500 223.44444444444446 L 474 209 Z" style="fill: rgb(255,137,95);"/>
    <path d="M 500 341.6 L 492 358 L 500 354.63157894736844 Z" style="fill: rgb(255,140,79);"/>
    <path d="M 475 392 L 494 383 L 492 358 Z" style="fill: rgb(255,141,74);"/>
    <path d="M 481.7027027027027 400 L 498.4347826086956 400 L 494 383 L 475 392 Z" style="fill: rgb(255,142,68);"/>
    <path d="M 500 186.9245283018868 L 500 165.56521739130434 L 458 168 L 474 209 Z" style="fill: rgb(255,130,95);"/>
    <path d="M 454 18 L 415 4 L 416 53 Z" style="fill: rgb(222,90,58);"/>
    <path d="M 500 223.44444444444446 L 500 186.9245283018868 L 474 209 Z" style="fill: rgb(255,136,99);"/>
    <path d="M 467.3809523809524 400 L 475.57142857142856 400 L 475 392 Z" style="fill: rgb(255,141,73);"/>
    <path d="M 66.71052631578948 0 L 55.75 0 L 60 17 Z" style="fill: rgb(187,30,28);"/>
    <path d="M 0 21.348837209302324 L 0 54.970588235294116 L 29 20 Z" style="fill: rgb(182,27,25);"/>
    <path d="M 11.5 0 L 0 0 L 0 21.348837209302324 L 29 20 Z" style="fill: rgb(167,17,17);"/>
    <path d="M 464 65 L 454 18 L 416 53 Z" style="fill: rgb(231,95,60);"/>
    <path d="M 402.2 0 L 415 4 L 417.2068965517241 0 Z" style="fill: rgb(211,84,54);"/>
    <path d="M 497 50 L 454 18 L 464 65 Z" style="fill: rgb(231,95,56);"/>
    <path d="M 500 99.5 L 497 50 L 464 65 L 500 114.62162162162161 Z" style="fill: rgb(245,103,63);"/>
    <path d="M 500 361.28205128205127 L 500 354.63157894736844 L 492 358 Z" style="fill: rgb(255,141,75);"/>
    <path d="M 500 381.5405405405405 L 500 361.28205128205127 L 492 358 L 494 383 Z" style="fill: rgb(255,141,73);"/>
    <path d="M 500 51.82352941176471 L 497 50 L 500 99.5 Z" style="fill: rgb(248,105,62);"/>
    <path d="M 500 387.1666666666667 L 500 381.5405405405405 L 494 383 Z" style="fill: rgb(255,142,69);"/>
    <path d="M 481.7027027027027 400 L 475 392 L 475.57142857142856 400 Z" style="fill: rgb(255,142,69);"/>
    <path d="M 454 18 L 444.37209302325584 0 L 417.2068965517241 0 L 415 4 Z" style="fill: rgb(211,85,50);"/>
    <path d="M 11.5 0 L 29 20 L 37.51063829787234 0 Z" style="fill: rgb(173,21,20);"/>
    <path d="M 498.4347826086956 400 L 500 400 L 500 387.1666666666667 L 494 383 Z" style="fill: rgb(255,142,67);"/>
    <path d="M 464.125 0 L 444.37209302325584 0 L 454 18 Z" style="fill: rgb(211,85,47);"/>
    <path d="M 500 0 L 464.125 0 L 454 18 L 500 7.442622950819672 Z" style="fill: rgb(211,86,43);"/>
    <path d="M 500 42.333333333333336 L 500 7.442622950819672 L 454 18 L 497 50 Z" style="fill: rgb(221,91,48);"/>
    <path d="M 500 51.8235294117647 L 500 50.86440677966102 L 497 50 Z" style="fill: rgb(240,101,58);"/>
    <path d="M 500 46.55882352941177 L 500 42.333333333333336 L 497 50 Z" style="fill: rgb(220,91,46);"/>
    <path d="M 500 50.86440677966102 L 500 46.55882352941177 L 497 50 Z" style="fill: rgb(230,96,51);"/>
  </g>
</svg>