<?xml version="1.0" encoding="utf-8"?>
<svg viewBox="0 0 500 500" xmlns="http://www.w3.org/2000/svg" xmlnsbx="https://boxy-svg.com">
  <path d="M 241.86 225.581 Q 241.86 224.511 242.835 223.893 Q 243.875 223.234 245.236 223.632 Q 246.748 224.075 247.707 225.581 Q 248.784 227.273 248.612 229.479 Q 248.419 231.946 246.733 234.021 Q 244.865 236.319 241.86 237.275 Q 238.565 238.324 235.038 237.397 Q 231.207 236.389 228.357 233.377 Q 225.284 230.131 224.319 225.581 Q 223.285 220.709 224.981 215.836 Q 226.786 210.648 231.14 207.014 Q 235.752 203.164 241.86 202.192 Q 248.302 201.167 254.529 203.638 Q 261.072 206.234 265.491 211.938 Q 270.119 217.911 271.096 225.581 Q 272.116 233.591 268.867 241.173 Q 265.483 249.072 258.427 254.276 Q 251.094 259.684 241.86 260.664 Q 232.283 261.68 223.344 257.652 Q 214.09 253.481 208.101 245.072 Q 201.912 236.38 200.93 225.581 Q 199.916 214.437 204.726 204.141 Q 209.682 193.531 219.446 186.759 Q 229.496 179.788 241.86 178.804 Q 254.571 177.792 266.223 183.383 Q 278.189 189.124 285.746 200.243 Q 293.499 211.651 294.484 225.581 Q 295.494 239.859 289.122 252.868 Q 282.596 266.19 270.121 274.531 Q 257.356 283.066 241.86 284.053 Q 226.015 285.061 211.65 277.907 Q 196.971 270.597 187.846 256.766 Q 178.529 242.643 177.541 225.581 Q 176.534 208.17 184.47 192.447 Q 192.565 176.412 207.752 166.503 Q 223.231 156.403 241.86 155.415 Q 260.838 154.408 277.917 163.128 Q 295.309 172.006 306.001 188.549 Q 316.884 205.386 317.873 225.581 Q 318.879 246.126 309.377 264.562 Q 299.715 283.31 281.816 294.786 Q 263.622 306.452 241.86 307.441 Q 219.749 308.447 199.955 298.162 Q 179.851 287.716 167.591 268.46 Q 155.143 248.909 154.153 225.581 Q 153.148 201.903 164.215 180.753 Q 175.445 159.292 196.057 146.248 Q 216.965 133.017 241.86 132.026 Q 267.105 131.022 289.612 142.872 Q 312.429 154.886 326.256 176.855 Q 340.271 199.12 341.262 225.581 Q 342.266 252.393 329.632 276.256 Q 316.835 300.43 293.51 315.041 Q 269.888 329.839 241.86 330.83 Q 213.482 331.834 188.261 318.417 Q 162.731 304.836 147.336 280.154 Q 131.756 255.175 130.764 225.581 Q 129.761 195.636 143.96 169.058 Q 158.325 142.171 184.363 125.993 Q 210.699 109.63 241.86 108.638 Q 273.372 107.635 301.306 122.617 Q 329.55 137.766 346.512 165.16 Q 363.658 192.853 364.65 225.581 Q 365.653 258.659 349.887 287.951 Q 333.956 317.551 305.204 335.296 Q 276.154 353.226 241.86 354.219 Q 207.215 355.221 176.567 338.672 Q 145.61 321.957 127.081 291.849 Q 108.368 261.442 107.375 225.581 Q 106.373 189.369 123.705 157.364 Q 141.204 125.05 172.669 105.738 Q 204.432 86.242 241.86 85.249 Q 279.638 84.247 313 102.362 Q 346.671 120.645 366.767 153.466 Q 387.046 186.587 388.039 225.581 Q 389.041 264.926 370.143 299.645 Q 351.077 334.672 316.899 355.552 Q 282.421 376.614 241.86 377.607 Q 200.948 378.609 164.872 358.927 Q 128.489 339.078 106.826 303.543 Q 84.98 267.709 83.987 225.581 Q 82.985 183.102 103.45 145.67 Q 124.083 107.929 160.974 85.483 Q 198.166 62.854 241.86 61.861 Q 285.905 60.859 324.695 82.107 Q 363.792 103.524 387.022 141.772 Q 410.434 180.32 411.428 225.581 Q 412.429 271.193 390.398 311.339 Q 368.198 351.793 328.593 375.807 Q 288.688 400.002 241.86 400.996 Q 194.681 401.997 153.178 379.183 Q 111.367 356.199 86.57 315.237 Q 61.592 273.975 60.598 225.581 Q 59.597 176.835 83.195 133.975 Q 106.962 90.808 149.28 65.228 Q 191.899 39.466 241.86 38.472 Q 292.172 37.471 336.389 61.852 Q 380.913 86.402 407.277 130.077 Q 433.822 174.053 434.816 225.581 Q 435.817 277.46 410.653 323.034 Q 385.319 368.915 340.287 396.062 Q 294.955 423.39 241.86 424.384 Q 208.214 425.014 176.163 414.535" style="fill-rule: nonzero; paint-order: fill; fill: rgb(53, 1, 1); stroke: rgb(180, 0, 0); stroke-opacity: 0.47; stroke-width: 6px; stroke-miterlimit: 6; stroke-dashoffset: 7px;" transform="matrix(1.326193, 0, 0, 1.286188, -78.474274, -48.208244)" bxshape="spiral 241.86 225.581 0 200.049 0 3079.172 1@052002a5"/>
</svg>