<svg width="512" height="168" viewBox="0 0 512 168" fill="none" xmlns="http://www.w3.org/2000/svg">
<path d="M102.66 1C100.898 1 98.7647 2.48379 93.015 7.49158C90.9748 8.23347 88.7492 7.67705 86.1525 11.6647C71.5001 32.716 60.0935 111.45 50.3561 134.17C48.4086 124.34 44.3282 60.3516 42.7517 42.8243C42.5662 39.5785 42.9372 35.4981 42.9372 33.0869C42.9372 16.9507 39.4132 8.78989 23.2769 8.78989C15.1161 8.78989 7.048 11.7575 2.7821 17.1362C0.741891 19.9183 0 21.9585 0 26.9663C0 60.4443 7.97537 115.344 16.8781 151.141C19.6602 162.362 29.6758 164.495 39.1349 164.495C43.5863 164.495 48.0377 163.939 54.3438 160.786C76.2297 150.121 82.0721 121.001 87.729 92.7167C88.7492 87.6162 93.8497 62.9482 96.2608 49.965C99.5066 32.2523 103.216 12.2212 105.442 4.89495C106.184 2.66926 104.793 1 102.66 1ZM474.349 81.1246C471.381 103.289 460.067 141.218 447.455 141.218C443.838 141.218 441.984 137.045 441.984 131.944C441.984 117.385 451.814 88.2653 474.349 81.1246ZM364.27 106.071C367.145 93.0877 379.572 73.242 390.7 73.242C392.74 73.242 393.853 74.5403 393.575 77.6933C392.926 87.5235 385.6 103.845 364.27 106.071ZM512 11.0156C512 7.12063 509.589 3.68937 504.117 3.68937C499.666 3.68937 494.473 5.91505 491.227 8.69716C487.332 7.76979 482.139 10.7374 481.49 14.2614C478.151 29.9339 476.667 46.2556 474.813 59.7024C452.37 61.7426 435.307 74.1694 426.96 94.4787C425.569 97.8172 423.993 101.063 422.138 104.216C410.268 124.433 395.43 136.118 380.87 136.118C370.205 136.118 364.085 128.606 363.343 118.405C367.145 119.332 370.762 119.796 374.1 119.796C398.212 119.796 410.453 96.9826 410.453 81.5883C410.453 66.6577 400.438 59.0533 385.6 59.0533C358.521 59.2387 335.986 91.5111 335.986 121.001C335.986 141.96 345.352 158.56 366.681 158.56C383.189 158.56 406.002 149.472 421.489 126.102C420.469 142.702 424.827 158.931 439.016 160.507C446.991 161.249 461.458 156.241 471.103 136.581C471.845 152.903 477.038 160.786 481.211 160.786C488.723 160.786 493.453 158.096 499.295 157.818C501.15 157.725 501.706 156.056 501.706 154.572C501.706 152.161 498.924 143.258 498.924 130.461C498.924 110.893 502.819 80.29 511.073 17.8781C511.444 16.3943 512 13.334 512 11.0156ZM141.053 50.9851C148.286 50.9851 154.221 45.05 154.221 38.5584C154.221 30.0266 151.625 21.8658 141.98 21.8658C135.396 21.8658 123.989 29.2847 123.989 35.6836C123.989 43.1953 132.243 50.9851 141.053 50.9851ZM338.304 45.7919C334.131 44.9573 329.587 44.8645 324.95 44.8645C325.135 41.6187 324.857 35.4054 324.95 29.9339C324.95 29.0993 325.321 27.6155 325.321 25.7607C325.321 23.906 324.95 21.8658 323.652 20.011C324.115 18.7127 324.393 17.5999 324.393 16.7653C324.393 12.3139 317.809 10.6446 311.596 10.6446C306.217 10.6446 301.209 12.5921 299.447 18.4345C296.572 28.7283 295.738 33.1797 294.996 43.9371C288.504 44.3081 275.892 44.4008 276.17 48.3885C276.912 58.6823 286.835 62.0208 293.976 62.2063C293.141 90.491 269.493 136.303 262.167 136.303C260.776 136.303 260.22 134.077 260.22 129.348C260.22 120.074 262.167 107.647 262.167 94.4787C262.167 86.3179 261.332 78.8989 258.828 74.1693C255.675 68.5124 245.289 65.7303 237.128 65.7303C233.975 65.7303 231.378 66.1012 229.338 66.8431C215.799 72.3146 204.392 103.103 200.126 109.966C202.166 91.3257 205.227 76.766 205.227 69.1616C205.227 64.8957 201.424 61.0935 197.158 61.0935C195.489 61.0935 194.005 61.6499 192.614 62.9482C186.494 65.1739 178.333 62.9482 176.942 71.6655C176.571 73.9839 176.107 76.766 175.922 79.919C174.438 102.547 151.81 144.464 140.218 144.464C137.343 144.464 136.694 140.754 136.694 136.025C136.694 120.26 144.855 87.0598 145.04 80.3827C145.504 79.3626 145.782 78.157 145.782 77.1369C145.782 70.8308 138.363 64.7102 130.759 64.7102C128.533 64.7102 126.957 64.2465 125.195 64.2465C124.082 64.2465 122.876 64.432 121.578 65.2666C113.139 70.6454 105.72 101.434 105.72 120.352C105.72 141.218 117.869 157.911 137.158 157.911C150.976 157.911 162.66 145.298 172.583 127.864C172.583 130.553 172.027 143.629 172.583 151.048C172.954 156.149 178.24 153.923 184.639 156.52C187.05 158.56 189.276 159.487 191.223 159.487C194.469 159.487 196.973 156.612 198.828 151.605C206.432 130.739 224.794 83.9067 229.987 83.9067C233.882 83.9067 229.895 114.046 229.895 128.977C229.895 137.509 230.729 144.835 233.697 147.988C239.168 153.738 245.011 156.52 251.131 156.52C264.671 156.52 278.952 142.053 290.637 115.159C289.895 126.658 289.803 130.182 289.803 134.17C289.803 140.847 290.174 148.266 291.101 153.645C291.657 156.241 291.936 158.096 294.254 159.765C297.407 161.527 300.282 162.548 301.858 163.66C305.475 165.422 305.197 166.35 310.205 166.35C311.967 166.35 314.378 164.68 314.749 160.693C319.2 116.643 323.837 62.299 323.837 62.299C326.805 62.2063 335.244 60.0734 343.126 59.146C346.465 58.775 350.452 56.7348 350.452 54.3237C350.452 51.9125 345.166 47.2757 338.304 45.7919Z" fill="#007782"/>
</svg>
