<?xml version="1.0" encoding="utf-8"?>
<svg viewBox="0 0 500 500" xmlns="http://www.w3.org/2000/svg" xmlns:xlink="http://www.w3.org/1999/xlink">
  <defs>
    <path id="path-0" d="M 36.047 266.279 C 61.494 271.717 81.74 281.336 102.907 286.628 C 134.102 297.935 156.704 306.491 171.512 325 C 176.53 335.037 181.672 344.434 184.302 352.326 C 186.5 357.303 188.838 364.768 191.86 366.279 C 199.088 370.183 204.537 373.605 212.209 376.163 C 230.872 379.314 246.27 387.272 261.047 393.605 C 271.864 400.429 257.757 404.712 253.488 407.558 C 234.65 408.14 228.433 396.234 225.581 381.977 C 228.446 345.239 245.21 315.709 256.395 286.628 C 267.526 265.059 271.632 249.177 278.488 235.465 C 279.07 222.263 273.854 216.877 266.279 209.302 C 252.511 200.111 240.962 194.318 229.07 188.372 C 203.909 179.598 187.591 176.833 166.86 186.047 C 127.693 209.926 99.053 235.635 73.837 263.372 C 59.511 286.935 53.488 306.873 53.488 326.163 C 60.184 362.546 87.819 387.343 115.698 404.07 C 162.754 421.887 192.666 430.261 225 434.302" style="fill: none;"/>
    <path id="path-1" d="M 207.558 246.512 C 212.136 247.093 214.451 247.674 216.86 247.674 C 220.173 247.674 222.464 247.093 225 247.093 C 229.934 246.512 234.024 244.767 237.791 244.767 C 238.372 244.662 242.644 241.86 243.605 241.86 C 246.76 241.86 248.827 239.535 251.163 239.535 C 254.036 239.535 254.73 237.209 257.558 237.209 C 259.436 236.628 264.535 233.875 264.535 232.558 C 267.487 231.977 272.943 224.732 275 222.674 C 275.581 219.875 275.177 217.088 276.163 215.116 C 276.163 212.394 276.744 209.996 276.744 207.558 C 276.744 205.739 277.326 202.728 277.326 200.581 C 277.326 199.436 274.673 194.767 274.419 194.767 C 272.565 194.186 271.053 190.698 270.349 190.698 C 269.767 189.221 266.279 188.018 266.279 187.209 C 264.363 186.628 263.374 184.302 262.209 184.302 C 260.391 184.302 257.461 181.395 256.395 181.395 C 253.574 181.395 250.317 178.488 247.674 178.488 C 244.516 178.488 243.452 177.326 240.698 177.326 C 236.434 177.326 233.333 177.326 230.233 177.326 C 227.519 177.326 225.388 177.326 223.256 177.326 C 218.992 177.326 215.31 177.326 211.628 177.326 C 207.752 177.326 204.457 177.326 201.163 177.326 C 196.626 177.326 193.854 179.07 192.442 179.07 C 191.04 181.293 185.918 185.012 184.302 186.628 C 183.721 188.166 180.699 190.927 179.651 193.023 C 177.966 196.394 175.581 198.639 175.581 200.581 C 175.581 202.59 173.512 205.883 172.674 207.558 C 172.093 211.084 171.429 215.281 170.349 217.442 C 168.999 222.655 169.767 227.68 169.767 231.977 C 169.767 235.379 171.512 236.595 171.512 238.953 C 171.937 239.535 174.419 246.346 174.419 247.674 C 174.419 250.05 176.185 254.092 177.907 255.814 C 178.488 258.067 181.255 263.372 181.977 263.372 C 183.384 265.605 186.125 269.767 187.791 269.767 C 191.533 273.51 195.46 275.928 199.419 277.907 C 205.381 280.307 210.521 280.833 215.698 282.558 C 220.465 283.76 225.229 284.884 229.07 284.884 C 237.429 286.537 243.787 287.209 250.581 287.209 C 253.896 287.209 256.179 287.426 258.14 285.465 C 261.739 284.537 272.093 282.705 272.093 280.814 C 274.025 280.233 277.372 275.535 279.07 273.837 C 283.847 269.06 288.79 263.862 290.698 258.14 C 291.279 255.045 294.186 252.826 294.186 250 C 295.675 247.348 298.256 241.622 298.256 239.535 C 300.417 234.631 302.326 227.523 302.326 222.674 C 302.326 218.153 301.744 214.302 301.744 210.465 C 300.501 206.816 299.419 201.566 299.419 198.837 C 299.419 195 298.837 192.17 298.837 188.953 C 297.392 185.482 297.4 182.009 295.93 179.07 C 294.436 177.245 293.023 174.005 293.023 172.093 C 291.093 170.162 289.535 167.348 289.535 165.698 C 288.953 164.073 287.724 160.98 286.628 159.884 C 283.182 156.438 279.427 153.846 276.744 151.163 C 274.974 149.393 271.923 145.349 269.767 145.349 C 267.747 144.629 262.7 143.514 261.628 142.442 C 255.629 140.83 248.663 141.279 243.605 141.279 C 236.822 141.279 231.783 141.279 226.744 141.279 C 221.318 141.279 217.636 141.279 213.953 141.279 C 206.279 141.279 201.368 145.349 195.93 145.349 C 191.181 147.126 185.189 149.694 182.558 152.326 C 180.085 152.907 173.536 157.859 172.093 159.302 C 169.637 160.821 163.953 165.089 163.953 167.442 C 162.104 169.873 159.695 171.701 157.558 173.837 C 156.977 175.108 154.291 179.651 154.07 179.651 C 153.488 181.468 151.914 186.699 151.163 188.953 C 149.952 193.118 148.837 200.135 148.837 202.907 C 148.192 204.779 147.093 209.352 147.093 210.465 C 145.42 213.301 145.349 217.39 145.349 219.767 C 145.349 228.021 144.438 235.059 146.512 241.279 C 147.093 253.375 151.163 264.298 151.163 275 C 152.405 280.472 152.384 285.583 154.07 288.953 C 154.07 292.61 157.558 295.809 157.558 298.256 C 158.14 301.804 162.647 303.926 164.535 305.814 C 168.327 306.977 175.429 312.158 179.07 313.372 C 189.153 316.927 197.639 317.442 206.977 317.442 C 218.014 317.442 226.423 316.279 234.302 316.279 C 240.006 315.698 244.941 313.78 247.674 311.047 C 250.722 311.047 258.838 309.185 260.465 307.558 C 267.942 304.872 274.628 305.418 280.814 302.326 C 285.95 299.757 292.308 296.646 295.349 293.605 C 301.174 288.942 307.37 285.528 312.791 283.721 C 318.444 280.604 319.069 275.931 322.093 274.419 C 327.317 268.613 330.583 263.252 333.14 258.14 C 335.477 251.127 336.628 245.735 336.628 240.116 C 336.628 228.679 335.465 220.789 335.465 212.209 C 334.884 204.651 334.884 199.419 334.884 194.186 C 334.884 186.446 336.047 181.442 336.047 176.163 C 336.047 170.793 336.184 165.254 332.558 161.628 C 328.028 157.097 324.785 152.692 320.93 148.837 C 319.103 145.765 318.74 144.457 317.442 141.86 C 313.906 138.325 313.706 133.75 309.302 130.814 C 306.503 128.015 298.305 119.767 296.512 119.767 C 293.98 118.398 287.892 113.953 287.209 113.953 C 281.706 113.953 273.582 111.709 268.605 110.465 C 260.408 108.416 251.951 106.977 245.93 106.977 C 240.698 106.977 236.628 106.977 232.558 106.977 C 225.256 106.977 219.281 107.558 213.953 107.558 C 206.386 107.558 200.515 111.047 194.767 111.047 C 188.195 113.461 180.55 112.191 176.163 115.116 C 170.132 117.55 160.586 122.674 156.977 122.674 C 152.75 124.497 147.868 124.225 144.767 127.326 C 141.169 132.432 136.344 137.493 132.558 141.279 C 127.735 145.521 124.102 149.735 120.349 153.488 C 117.212 159.762 111.628 164.794 111.628 169.186 C 109.561 174.483 108.721 180.24 108.721 184.884 C 108.721 192.054 108.721 197.481 108.721 202.907 C 108.721 208.745 109.71 214.883 107.558 219.186 C 107.558 226.075 106.977 230.845 106.977 236.047 C 108.642 242.788 109.302 248.222 109.302 253.488 C 111.64 259.919 111.007 267.363 113.372 272.093 C 113.953 278.87 116.279 284.024 116.279 288.953 C 116.279 292.742 117.442 294.728 117.442 297.674 C 118.023 302.196 120.93 305.765 120.93 309.302 C 122.235 310.465 122.976 316.581 124.419 318.023 C 125 322.261 128.488 324.926 128.488 327.326 C 133.249 332.668 134.556 339.371 139.535 341.86 C 145.182 347.507 152.996 347.763 156.977 351.744 C 160.525 353.518 164.446 356.395 166.86 356.395 C 174.53 356.395 181.387 358.14 188.372 358.14 C 203.108 358.14 212.961 355.495 225 353.488 C 232.618 352.02 242.743 351.443 245.349 348.837 C 257.571 345.636 266.35 344.186 277.326 344.186 C 287.403 344.186 295.155 344.186 302.907 344.186 C 315.953 344.767 327.164 345.93 338.372 345.93 C 350.187 348.303 361.154 347.093 370.93 347.093 C 382.171 347.674 389.341 347.674 396.512 347.674 C 404.088 347.674 412.515 349.123 418.605 347.093 C 423.638 346.512 434.418 346.396 436.628 344.186 C 440.659 343.605 446.753 343.484 450 341.86 C 454.264 341.86 457.364 341.86 460.465 341.86 C 464.147 341.86 467.248 341.86 470.349 341.86 L 470.93 341.86 C 472.481 341.86 474.031 341.86 475.581 341.86" style="fill: none;"/>
  </defs>
  <text style="fill: #ec6238; font-family: Arial, sans-serif; font-size: 28px; white-space: pre;" transform="matrix(1.61743, 0, 0, 1.441128, -150.755417, -96.906639)"><textPath xlink:href="#path-1">WłóczkaWłóczkaWłóczkaWłóczkaWłóczkaWłóczkaWłóczkaWłóczkaWłóczkaWłóczkaWłóczkaWłóczkaWłóczkaWłóczkaWłóczkaWłóczkaWłóczka</textPath></text>
</svg>